<?xml version="1.0" encoding="UTF-8" standalone="no"?>
<svg width="30px" height="30px" viewBox="0 0 30 30" version="1.1" xmlns="http://www.w3.org/2000/svg" xmlns:xlink="http://www.w3.org/1999/xlink">
    <!-- Generator: Sketch 3.6.1 (26313) - http://www.bohemiancoding.com/sketch -->
    <title>search</title>
    <desc>Created with Sketch.</desc>
    <defs></defs>
    <g id="Page-1" stroke="none" stroke-width="1" fill="none" fill-rule="evenodd">
        <path d="M20.7692308,12.6923077 C20.7692308,10.4687389 19.9789742,8.56671463 18.3984375,6.98617788 C16.8179008,5.40564114 14.9158765,4.61538462 12.6923077,4.61538462 C10.4687389,4.61538462 8.56671463,5.40564114 6.98617788,6.98617788 C5.40564114,8.56671463 4.61538462,10.4687389 4.61538462,12.6923077 C4.61538462,14.9158765 5.40564114,16.8179008 6.98617788,18.3984375 C8.56671463,19.9789742 10.4687389,20.7692308 12.6923077,20.7692308 C14.9158765,20.7692308 16.8179008,19.9789742 18.3984375,18.3984375 C19.9789742,16.8179008 20.7692308,14.9158765 20.7692308,12.6923077 L20.7692308,12.6923077 Z M30,27.6923077 C30,28.3173108 29.7716369,28.8581708 29.3149038,29.3149038 C28.8581708,29.7716369 28.3173108,30 27.6923077,30 C27.043266,30 26.502406,29.7716369 26.0697115,29.3149038 L19.8858173,23.1490385 C17.7343642,24.6394305 15.3365517,25.3846154 12.6923077,25.3846154 C10.9735491,25.3846154 9.32993573,25.0510851 7.76141827,24.3840144 C6.19290081,23.7169438 4.84075087,22.8155105 3.70492788,21.6796875 C2.5691049,20.5438645 1.6676716,19.1917146 1.00060096,17.6231971 C0.333530319,16.0546797 0,14.4110663 0,12.6923077 C0,10.9735491 0.333530319,9.32993573 1.00060096,7.76141827 C1.6676716,6.19290081 2.5691049,4.84075087 3.70492788,3.70492788 C4.84075087,2.5691049 6.19290081,1.6676716 7.76141827,1.00060096 C9.32993573,0.333530319 10.9735491,0 12.6923077,0 C14.4110663,0 16.0546797,0.333530319 17.6231971,1.00060096 C19.1917146,1.6676716 20.5438645,2.5691049 21.6796875,3.70492788 C22.8155105,4.84075087 23.7169438,6.19290081 24.3840144,7.76141827 C25.0510851,9.32993573 25.3846154,10.9735491 25.3846154,12.6923077 C25.3846154,15.3365517 24.6394305,17.7343642 23.1490385,19.8858173 L29.3329327,26.0697115 C29.7776465,26.5144253 30,27.0552853 30,27.6923077 L30,27.6923077 Z" id="search" fill="#FFFFFF"></path>
    </g>
</svg>